<svg xmlns="http://www.w3.org/2000/svg" width="192" height="192" viewBox="0 0 192 192">
  <defs>
    <linearGradient id="grad" x1="0%" y1="0%" x2="100%" y2="100%">
      <stop offset="0%" style="stop-color:#3B82F6;stop-opacity:1" />
      <stop offset="100%" style="stop-color:#2563EB;stop-opacity:1" />
    </linearGradient>
  </defs>
  <rect width="192" height="192" rx="42" fill="url(#grad)"/>
  <g fill="white">
    <!-- Flame icon -->
    <path d="M96 32c-5.3 0-9.6 4.3-9.6 9.6 0 0 0 .8.1 2.2.3 4.5 1.4 13.3 5.3 23.8 2.5 6.7 5.1 11.3 6.8 14.2l1.4 2.2 1.4-2.2c1.7-2.9 4.3-7.5 6.8-14.2 3.9-10.5 5-19.3 5.3-23.8.1-1.4.1-2.2.1-2.2 0-5.3-4.3-9.6-9.6-9.6h-8z" transform="translate(0, 20) scale(0.9)"/>
    <circle cx="96" cy="96" r="28" fill="none" stroke="white" stroke-width="6"/>
    <path d="M80 96 L92 108 L116 84" fill="none" stroke="white" stroke-width="6" stroke-linecap="round" stroke-linejoin="round"/>
  </g>
  <text x="96" y="155" text-anchor="middle" fill="white" font-family="system-ui, sans-serif" font-size="24" font-weight="600">DT</text>
</svg>
